<svg id="Layer_1" data-name="Layer 1" xmlns="http://www.w3.org/2000/svg"
     viewBox="0 0 11.32 15.93">
    <defs>
        <style>
            .cls-1 {
                fill: #7a7a7a;
            }
            .cls-2 {
                fill: #939393;
            }
            .cls-3 {
                fill: #b7999c;
            }
        </style>
    </defs>
    <title>Award</title>
    <polygon class="cls-1"
             points="5.71 15.93 3.43 13.64 0 14.78 3.43 7.93 8 9.07 5.71 15.93"/>
    <polyline class="cls-2"
              points="6.51 15.17 8.21 12.91 11.32 13.48 8.5 7.82 4.54 8.38 6.51 15.17 6.51 15.17"/>
    <polygon class="cls-3"
             points="9.1 8.76 8.21 8.66 8.07 9.54 7.24 9.22 6.89 10.04 6.17 9.53 5.62 10.23 5.04 9.55 4.34 10.1 3.95 9.3 3.13 9.65 2.96 8.78 2.08 8.92 2.12 8.04 1.24 7.95 1.5 7.1 0.66 6.8 1.13 6.04 0.39 5.54 1.03 4.93 0.44 4.26 1.21 3.82 0.81 3.03 1.67 2.79 1.47 1.93 2.36 1.91 2.39 1.02 3.25 1.23 3.5 0.38 4.29 0.8 4.74 0.03 5.39 0.63 6.02 0 6.51 0.74 7.28 0.29 7.56 1.13 8.42 0.88 8.49 1.77 9.37 1.74 9.22 2.62 10.09 2.81 9.72 3.62 10.51 4.02 9.96 4.72 10.63 5.3 9.91 5.84 10.41 6.57 9.59 6.91 9.89 7.75 9.01 7.87 9.1 8.76"/>
</svg>
