<svg id="Layer_1" data-name="Layer 1" xmlns="http://www.w3.org/2000/svg"
     viewBox="0 0 14.97 14.99">
    <defs>
        <style>
            .cls-1 {
                fill: #aaa;
            }
        </style>
    </defs>
    <title>Caution2</title>
    <path class="cls-1"
          d="M6.91,10.25,6.59,7.33Q6.5,6.47,6.5,6.1a.9.9,0,0,1,.43-.79A2,2,0,0,1,8.07,5a1.41,1.41,0,0,1,1.14.36,1.66,1.66,0,0,1,.29,1,5,5,0,0,1-.07.82l-.43,3a1.65,1.65,0,0,1-.3.82.91.91,0,0,1-.75.29.88.88,0,0,1-.75-.28A1.93,1.93,0,0,1,6.91,10.25Zm1.1,4A2.22,2.22,0,0,1,7,14a.74.74,0,0,1-.45-.68.76.76,0,0,1,.43-.64A2,2,0,0,1,8,12.45a2,2,0,0,1,1.07.27.76.76,0,0,1,.44.64.74.74,0,0,1-.45.67A2.14,2.14,0,0,1,8,14.28Z"
          transform="translate(-0.52 -0.51)"/>
    <path class="cls-1"
          d="M1,15.5H15a.5.5,0,0,0,.43-.74l-7-14a.5.5,0,0,0-.85,0l-7,14c-.28.57.57,1.07.85.5l7-14H7.57l7,14L15,14.5H1A.5.5,0,0,0,1,15.5Z"
          transform="translate(-0.52 -0.51)"/>
</svg>
