<svg width="32" height="30" xmlns="http://www.w3.org/2000/svg">
  <g fill="#555" fill-rule="nonzero">
    <path d="M10 18a1.001 1.001 0 0 1-1-1C9 8.546 13.583 4.291 23 4.015V1a1 1 0 0 1 1.707-.707l7 7a.999.999 0 0 1 0 1.414l-7 7A1 1 0 0 1 23 15v-2.992c-5.67.057-8.946.362-12.15 5.519A1 1 0 0 1 10 18zM25 3.414V5a1 1 0 0 1-1 1c-7.541 0-11.577 2.387-12.683 7.645 3.471-3.577 7.48-3.606 12.675-3.645.25-.021.523.103.712.291.19.187.296.442.296.709v1.586L29.586 8 25 3.414z"/>
    <path d="M25.5 30h-23A2.503 2.503 0 0 1 0 27.5v-17C0 9.122 1.122 8 2.5 8H7a1 1 0 0 1 0 2H2.5a.5.5 0 0 0-.5.5v17a.5.5 0 0 0 .5.5h23c.275 0 .5-.225.5-.5V18a1 1 0 1 1 2 0v9.5c0 1.379-1.121 2.5-2.5 2.5z"/>
  </g>
</svg>
